<svg width="196" height="40" viewBox="0 0 196 40" fill="none" xmlns="http://www.w3.org/2000/svg">
<path fill-rule="evenodd" clip-rule="evenodd" d="M27.474 1.48017C24.0035 3.6732 24.1012 3.38256 24.1012 11.5178C24.1012 15.0772 24.1563 17.9892 24.2238 17.9892C24.4782 17.9892 28.046 15.7619 28.5493 15.2885C28.8387 15.0166 29.269 14.3955 29.5054 13.9087C29.9035 13.0893 29.931 12.5374 29.8759 6.51165L29.8163 0L27.474 1.48017ZM12 17.22C12.0007 20.5718 12.1015 23.6962 12.2244 24.1629C12.5612 25.4438 13.6899 26.6037 15.8825 27.9227C16.9708 28.5773 17.9036 29.1129 17.9556 29.1129C18.0074 29.1129 18.0499 26.2494 18.0499 22.7497V16.3864L17.4336 15.1448C16.8948 14.0595 16.5494 13.7302 14.6881 12.5272C13.5171 11.7703 12.433 11.1453 12.2788 11.1384C12.0616 11.1285 11.9989 12.4948 12 17.22ZM35.981 17.1017C35.9821 23.4233 36.1056 24.4583 37.0077 25.7209C37.4216 26.3005 40.6826 28.5525 41.8684 29.0781C41.9719 29.1241 42.0257 26.1337 41.9879 22.4333L41.9188 15.7051L41.3274 14.7619C40.9139 14.1023 40.0938 13.414 38.5991 12.4723C37.4239 11.7315 36.3537 11.1256 36.221 11.1256C36.0549 11.1256 35.9801 12.9899 35.981 17.1017ZM27.9113 23.2084C26.8635 23.8519 25.7144 24.6684 25.3579 25.0227C24.1649 26.2078 24.1012 26.643 24.1012 33.6022C24.1012 37.1211 24.164 40 24.2404 40C24.317 40 25.2808 39.4507 26.3823 38.7795C28.5218 37.4754 29.6278 36.3107 29.8246 35.1543C29.8916 34.7605 29.9172 31.6482 29.8813 28.238L29.8163 22.038L27.9113 23.2084Z" fill="#2F7BEB"/>
<path d="M80.3395 10.5909V29.5H77.7173L68.1058 15.6321H67.9304V29.5H65.0774V10.5909H67.718L77.3388 24.4773H77.5142V10.5909H80.3395ZM90.2534 29.7862C88.9238 29.7862 87.7636 29.4815 86.7725 28.8722C85.7815 28.2628 85.0121 27.4103 84.4643 26.3146C83.9165 25.219 83.6426 23.9387 83.6426 22.4737C83.6426 21.0026 83.9165 19.7161 84.4643 18.6143C85.0121 17.5125 85.7815 16.657 86.7725 16.0476C87.7636 15.4382 88.9238 15.1335 90.2534 15.1335C91.5829 15.1335 92.7432 15.4382 93.7342 16.0476C94.7252 16.657 95.4946 17.5125 96.0424 18.6143C96.5903 19.7161 96.8642 21.0026 96.8642 22.4737C96.8642 23.9387 96.5903 25.219 96.0424 26.3146C95.4946 27.4103 94.7252 28.2628 93.7342 28.8722C92.7432 29.4815 91.5829 29.7862 90.2534 29.7862ZM90.2626 27.4688C91.1243 27.4688 91.8384 27.241 92.4047 26.7855C92.9709 26.33 93.3895 25.7237 93.6603 24.9666C93.9373 24.2095 94.0758 23.3755 94.0758 22.4645C94.0758 21.5597 93.9373 20.7287 93.6603 19.9716C93.3895 19.2083 92.9709 18.5959 92.4047 18.1342C91.8384 17.6726 91.1243 17.4418 90.2626 17.4418C89.3947 17.4418 88.6745 17.6726 88.1021 18.1342C87.5358 18.5959 87.1142 19.2083 86.8372 19.9716C86.5663 20.7287 86.4309 21.5597 86.4309 22.4645C86.4309 23.3755 86.5663 24.2095 86.8372 24.9666C87.1142 25.7237 87.5358 26.33 88.1021 26.7855C88.6745 27.241 89.3947 27.4688 90.2626 27.4688ZM111.595 15.3182L106.453 29.5H103.498L98.3461 15.3182H101.31L104.901 26.2315H105.049L108.632 15.3182H111.595ZM119.681 29.7862C118.352 29.7862 117.191 29.4815 116.2 28.8722C115.209 28.2628 114.44 27.4103 113.892 26.3146C113.344 25.219 113.07 23.9387 113.07 22.4737C113.07 21.0026 113.344 19.7161 113.892 18.6143C114.44 17.5125 115.209 16.657 116.2 16.0476C117.191 15.4382 118.352 15.1335 119.681 15.1335C121.011 15.1335 122.171 15.4382 123.162 16.0476C124.153 16.657 124.922 17.5125 125.47 18.6143C126.018 19.7161 126.292 21.0026 126.292 22.4737C126.292 23.9387 126.018 25.219 125.47 26.3146C124.922 27.4103 124.153 28.2628 123.162 28.8722C122.171 29.4815 121.011 29.7862 119.681 29.7862ZM119.69 27.4688C120.552 27.4688 121.266 27.241 121.832 26.7855C122.399 26.33 122.817 25.7237 123.088 24.9666C123.365 24.2095 123.504 23.3755 123.504 22.4645C123.504 21.5597 123.365 20.7287 123.088 19.9716C122.817 19.2083 122.399 18.5959 121.832 18.1342C121.266 17.6726 120.552 17.4418 119.69 17.4418C118.822 17.4418 118.102 17.6726 117.53 18.1342C116.964 18.5959 116.542 19.2083 116.265 19.9716C115.994 20.7287 115.859 21.5597 115.859 22.4645C115.859 23.3755 115.994 24.2095 116.265 24.9666C116.542 25.7237 116.964 26.33 117.53 26.7855C118.102 27.241 118.822 27.4688 119.69 27.4688ZM135.993 15.3182V17.5341H128.247V15.3182H135.993ZM130.324 11.9205H133.085V25.3359C133.085 25.8714 133.165 26.2746 133.325 26.5455C133.485 26.8101 133.691 26.9917 133.944 27.0902C134.202 27.1825 134.482 27.2287 134.784 27.2287C135.006 27.2287 135.199 27.2133 135.366 27.1825C135.532 27.1518 135.661 27.1271 135.753 27.1087L136.252 29.3892C136.092 29.4508 135.864 29.5123 135.569 29.5739C135.273 29.6416 134.904 29.6785 134.461 29.6847C133.734 29.697 133.057 29.5677 132.43 29.2969C131.802 29.026 131.294 28.6075 130.906 28.0412C130.518 27.4749 130.324 26.764 130.324 25.9084V11.9205ZM145.007 29.7862C143.61 29.7862 142.406 29.4877 141.397 28.8906C140.394 28.2874 139.618 27.4411 139.07 26.3516C138.529 25.2559 138.258 23.9725 138.258 22.5014C138.258 21.0488 138.529 19.7685 139.07 18.6605C139.618 17.5526 140.381 16.6877 141.36 16.0661C142.345 15.4444 143.496 15.1335 144.813 15.1335C145.613 15.1335 146.389 15.2659 147.14 15.5305C147.891 15.7952 148.565 16.2107 149.162 16.777C149.759 17.3433 150.23 18.0788 150.575 18.9837C150.919 19.8823 151.092 20.9749 151.092 22.2614V23.2401H139.818V21.1719H148.386C148.386 20.4455 148.239 19.8023 147.943 19.2422C147.648 18.6759 147.232 18.2296 146.697 17.9034C146.167 17.5772 145.546 17.4141 144.832 17.4141C144.056 17.4141 143.379 17.6049 142.8 17.9865C142.228 18.362 141.785 18.8544 141.471 19.4638C141.163 20.067 141.009 20.7225 141.009 21.4304V23.0462C141.009 23.9941 141.175 24.8004 141.508 25.4652C141.846 26.13 142.317 26.6378 142.92 26.9886C143.524 27.3333 144.228 27.5057 145.035 27.5057C145.558 27.5057 146.035 27.4318 146.466 27.2841C146.897 27.1302 147.269 26.9025 147.583 26.6009C147.897 26.2992 148.137 25.9268 148.303 25.4837L150.916 25.9545C150.707 26.724 150.331 27.398 149.79 27.9766C149.254 28.549 148.58 28.9953 147.768 29.3153C146.961 29.6293 146.041 29.7862 145.007 29.7862ZM156.915 10.5909V29.5H154.155V10.5909H156.915Z" fill="#2F7BEB"/>
</svg>
