<svg width="24" height="25" viewBox="0 0 24 25" fill="none" xmlns="http://www.w3.org/2000/svg">
<path fill-rule="evenodd" clip-rule="evenodd" d="M10.5 3.76625C9.61358 3.76625 8.73583 3.94084 7.91689 4.28006C7.09794 4.61928 6.35382 5.11648 5.72703 5.74328C5.10023 6.37007 4.60303 7.11419 4.26381 7.93313C3.92459 8.75208 3.75 9.62982 3.75 10.5162C3.75 11.4027 3.92459 12.2804 4.26381 13.0994C4.60303 13.9183 5.10023 14.6624 5.72703 15.2892C6.35382 15.916 7.09794 16.4132 7.91689 16.7524C8.73583 17.0917 9.61358 17.2662 10.5 17.2662C12.2902 17.2662 14.0071 16.5551 15.273 15.2892C16.5388 14.0233 17.25 12.3065 17.25 10.5162C17.25 8.72604 16.5388 7.00915 15.273 5.74328C14.0071 4.47741 12.2902 3.76625 10.5 3.76625ZM2.25 10.5162C2.25017 9.19134 2.56944 7.88597 3.18079 6.71055C3.79214 5.53512 4.67759 4.52422 5.76224 3.76337C6.84689 3.00251 8.09883 2.51407 9.41216 2.33937C10.7255 2.16467 12.0616 2.30885 13.3074 2.7597C14.5533 3.21056 15.6722 3.95483 16.5695 4.92957C17.4669 5.9043 18.1163 7.08082 18.4628 8.35961C18.8094 9.63839 18.8428 10.9818 18.5603 12.2763C18.2778 13.5707 17.6878 14.7781 16.84 15.7962L21.53 20.4862C21.6037 20.5549 21.6628 20.6377 21.7038 20.7297C21.7448 20.8217 21.7668 20.921 21.7686 21.0217C21.7704 21.1224 21.7518 21.2225 21.7141 21.3158C21.6764 21.4092 21.6203 21.4941 21.549 21.5653C21.4778 21.6365 21.393 21.6926 21.2996 21.7304C21.2062 21.7681 21.1062 21.7866 21.0055 21.7848C20.9048 21.7831 20.8055 21.761 20.7135 21.72C20.6215 21.679 20.5387 21.6199 20.47 21.5462L15.78 16.8562C14.5752 17.8597 13.1094 18.4991 11.5543 18.6995C9.99922 18.8999 8.41922 18.653 6.99941 17.9877C5.5796 17.3223 4.37878 16.2662 3.53763 14.943C2.69648 13.6197 2.24983 12.0842 2.25 10.5162Z" fill="#5D6679"/>
</svg>
